<svg xmlns="http://www.w3.org/2000/svg" xmlns:xlink="http://www.w3.org/1999/xlink" width="123" height="123" viewBox="0 0 123 123"><defs><style>.a{fill:#fff;stroke:#707070;}.b{clip-path:url(#a);}.c{fill:#b28b67;}.c,.d,.e,.f,.g,.h,.i,.j,.k,.l{fill-rule:evenodd;}.d{fill:#191847;}.e{fill:#c5cfd6;}.f{fill:rgba(0,0,0,0.1);}.g{fill:#1f28cf;}.h{fill:#e4e4e4;}.i{fill:#2b44ff;}.j{fill:#997659;}.k{fill:#0c7198;}.l{fill:#018dc3;}.m,.o{fill:none;}.m{stroke:#018dc3;stroke-width:6px;}.n{stroke:none;}</style><clipPath id="a"><circle class="a" cx="61.5" cy="61.5" r="61.5"/></clipPath></defs><g class="b"><g transform="translate(-11.803 18.015)"><g transform="translate(0 0)"><g transform="translate(33.545 0)"><g transform="translate(10.561 9.939)"><path class="c" d="M5.133,21.426C2.27,18.066.333,13.948.656,9.334,1.589-3.96,20.1-1.036,23.7,5.674S26.867,29.4,22.215,30.6c-1.855.478-5.808-.693-9.831-3.118l2.525,17.863H0Z"/></g><path class="d" d="M36.283,20.561a4.66,4.66,0,0,1,.971,1.805,18.256,18.256,0,0,1,.622,2.05,4.515,4.515,0,0,1-.681,4.089A4.689,4.689,0,0,1,34.09,29.85a5.707,5.707,0,0,1-2.2-.279c-.7-.231-1.306-.69-1.986-.975a8.887,8.887,0,0,1-1.048,4.367,4.354,4.354,0,0,1-3.242,2.115,6.428,6.428,0,0,1-3.949-.8c-.307-.166-.611-.34-.9-.537a2.529,2.529,0,0,0-.783-.431c-.319-.075-.477.109-.684.342a5.2,5.2,0,0,1-.806.726,4.75,4.75,0,0,1-4.445.764,4.13,4.13,0,0,1-1.812-1.31c-.413-.542-.708-1.4-1.279-1.781-.242-.16-.413.052-.634.209-.331.236-.647.5-.982.726a4.5,4.5,0,0,1-1.526.69c-.8.185-1.9.142-2.132-.905a4.32,4.32,0,0,1,.008-1.21c.038-.544.078-1.088.125-1.631a11.774,11.774,0,0,1,.159-1.216,1.779,1.779,0,0,0,.079-.834c-.116-.27-.65-.117-.878-.126a3.468,3.468,0,0,1-1.319-.29,1.42,1.42,0,0,1-.8-.739,1.327,1.327,0,0,1-.022-.695,2.072,2.072,0,0,0-.042-.713c-.605.3-2.7.96-2.966-.124a1.7,1.7,0,0,1,.265-1.074,9.3,9.3,0,0,1,.977-1.488,13.3,13.3,0,0,1,2.6-2.525,1.706,1.706,0,0,1-.445-2.857,2.113,2.113,0,0,1,1.552-.45,3.432,3.432,0,0,0,.642.051,1.534,1.534,0,0,1,.291-.1,8.652,8.652,0,0,1,2.381.3,7.85,7.85,0,0,1,3.631,1.9,1.119,1.119,0,0,0,.84.386c.312,0,.619-.089.931-.1a6.7,6.7,0,0,1,2.336.651,8.814,8.814,0,0,1,.765-3.107c.345-.76,1.067-.87,1.775-.937,2.267-.213,4.541.025,6.81.022-2.2-.5-4.467-.7-6.644-1.286-.984-.264-.233-.927.188-1.387a8,8,0,0,0,1.566-2.684,4.735,4.735,0,0,0,4.657,1.893,3.323,3.323,0,0,0,1.98-4.8,6.146,6.146,0,0,0-2.974-1.905c.809-.841,1-2.084,1.492-3.13A2.24,2.24,0,0,1,26.754,1.3a1.3,1.3,0,0,0,.589-.234c.194-.2.24-.425.489-.6a2.755,2.755,0,0,1,3.413.263,2.228,2.228,0,0,1-.076,2.921c1.055.44,2.976,1.005,2.557,2.648,2.285.152,7.834,3.858,4.767,6.567,1.683.951,3.23,3.276,2.149,5.326a5.21,5.21,0,0,1-4.358,2.367" transform="translate(41 35.409) rotate(180)"/></g><g transform="translate(0 106.848)"><g transform="translate(0 26.091)"><path class="e" d="M17.16,0H65.151l6.288,77.03H0Z"/><path class="f" d="M17.16,0H31.92l8.834,77.03H0Z"/></g><path class="c" d="M42.166,3.62c5.117-3.073,13.7.875,13.7,5.269C55.844,22.037,43.845,84,43.219,87.919s-7.337,4.952-7.728.013c-.622-7.859-1.777-35.064-.621-47.656.477-5.2.991-10.148,1.5-14.564Q26.922,42.767,7.154,74.549L0,71.28q8.427-27.765,13.82-39.2C19.976,19.022,25.748,7.842,28.178,3.9,32-2.291,38.651-.13,42.166,3.62Z" transform="translate(77.699 9.274)"/><path class="g" d="M0,69.477,3.179,6.418c2.291-10.9,21.684-5.843,21.676,0-.018,13.266-7.987,59.094-7.992,63.046Z" transform="translate(101.973 4.988) rotate(20)"/><g transform="translate(77.829 73.099) rotate(30)"><path class="h" d="M1.042,3.771A13.339,13.339,0,0,0,0,7.935a31.171,31.171,0,0,0,.56,4.9H35.6q1.366-4.515-1.577-4.875t-4.889-.65L12.847.054a.621.621,0,0,0-.82.314l-.007.016L10.973,2.924A11.172,11.172,0,0,1,6.546,4.195,10.026,10.026,0,0,1,2.724,3.077h0a1.242,1.242,0,0,0-1.647.612Q1.058,3.729,1.042,3.771Z" transform="translate(0 0)"/></g><g transform="translate(110.576 90.282)"><path class="h" d="M1.042,3.771A13.339,13.339,0,0,0,0,7.935a31.171,31.171,0,0,0,.56,4.9H35.6q1.366-4.515-1.577-4.875t-4.889-.65L12.847.054a.621.621,0,0,0-.82.314l-.007.016L10.973,2.924A11.172,11.172,0,0,1,6.546,4.195,10.026,10.026,0,0,1,2.724,3.077h0a1.242,1.242,0,0,0-1.647.612Q1.058,3.729,1.042,3.771Z" transform="translate(0 0)"/></g><path class="i" d="M106.085,22.633c0,16.5-7.838,55-7.843,58.634l-16.863.013Q85.081,29.755,84,29.2c-1.077-.555-44.138,4.3-57.052,4.3C8.329,33.5.625,21.755,0,0H36.892C44.4.8,83.583,8.706,98.134,11.423,104.364,12.586,106.085,18.086,106.085,22.633Z" transform="translate(29.197 0)"/></g><g transform="translate(21.26 41.621)"><path class="j" d="M0,22,21.562,10.189A53.34,53.34,0,0,1,32.161.268c1.063-.444,2.923-.713,1.184,2.374S29.915,9.054,30.8,10s3.1-.377,4.152,1.2Q36.01,12.787,23.63,16.2L7.963,30.545Zm33.77,9.964,9.471-5.2q1.993-7.585,4.766-7.633c1.42-.661-1.053,5.729,1.639,5.175s9.261-5.44,10.393-4.448c1.675,1.468.181,5.974-1.578,8.216-3.288,4.19-6.011,5.623-12.74,7.5a36.993,36.993,0,0,0-11.412,5.9Z" transform="translate(50.575 4.527)"/><path class="k" d="M3.42,3.953A52.981,52.981,0,0,0,32.769,0l2.7,9.956C26.993,16.062,15.754,20.4,6.793,18.722A8.233,8.233,0,0,1,3.42,3.953Z" transform="translate(36.079 20.526) rotate(-9)"/><path class="l" d="M50.244,38.988q12.027,3,40.336-7.074Q97.6,46.441,97.072,52.627c-16.19,8.457-30.067,12.228-41.5,12.477.363,6.784-.462,13.238-3.236,19.136-5.7,12.125-39.092.9-50.319,3.106-7.03-22.832,6.563-32.111,6.574-46.721C8.6,24.626,21.451,0,23.341,0H40.577C41.529,12.219,46.315,25.685,50.244,38.988Z" transform="translate(0 0)"/></g></g></g></g><g class="m"><circle class="n" cx="61.5" cy="61.5" r="61.5"/><circle class="o" cx="61.5" cy="61.5" r="58.5"/></g></svg>