<svg xmlns="http://www.w3.org/2000/svg" xmlns:xlink="http://www.w3.org/1999/xlink" width="83" height="83" viewBox="0 0 83 83"><defs><style>.a{fill:#fff;stroke:#707070;}.b{clip-path:url(#a);}.c{fill:#b28b67;}.c,.d,.e,.f,.g,.h,.i,.j,.k,.l{fill-rule:evenodd;}.d{fill:#2f3676;}.e{fill:#e4e4e4;}.f{fill:#997659;}.g{fill:#5c63ab;}.h{fill:#191847;}.i{fill:#dea900;}.j{fill:#fff2c9;}.k{fill:#f8bd00;}.l{fill:rgba(0,0,0,0.1);}.m,.o{fill:none;}.m{stroke:#f9bd00;stroke-width:6px;}.n{stroke:none;}</style><clipPath id="a"><circle class="a" cx="41.5" cy="41.5" r="41.5"/></clipPath></defs><g class="b" transform="translate(0)"><g transform="translate(-9.815 11.697)"><g transform="translate(0 0)"><g transform="translate(0 58.031)"><path class="c" d="M41.5,0c-7.639,6.232-4.629,61-5.139,61.689q-.34.459-36.36,7.756l1.045,4.24q42.146-2.018,44.6-5.146,3.509-4.479,8.6-50.153Z" transform="matrix(0.574, -0.819, 0.819, 0.574, 12.955, 45.139)"/><path class="d" d="M0,67.79l1.839,6.83c20.951,2.446,34.754-.51,39.606-5.13Q46.3,64.869,50.07,19.473L36.435,0c-18.187,13.725-7.25,58.783-7.713,59.813S17.214,61.637,0,67.79Z" transform="matrix(0.574, -0.819, 0.819, 0.574, 15.382, 41.015)"/><g transform="translate(68.531 81.7) rotate(20)"><path class="e" d="M.673,2.435A8.612,8.612,0,0,0,0,5.123,20.125,20.125,0,0,0,.361,8.29H22.983q.882-2.915-1.018-3.148t-3.156-.42L8.294.035a.4.4,0,0,0-.53.2l0,.01L7.084,1.888a7.213,7.213,0,0,1-2.858.821,6.473,6.473,0,0,1-2.468-.722h0A.8.8,0,0,0,.7,2.382Q.683,2.408.673,2.435Z" transform="translate(0 0)"/></g><path class="f" d="M70.829,0,50.074,49.633l-20.4,41.961h4.813L87.142,0Z" transform="translate(-28.715 11.145)"/><g transform="translate(0 98.406)"><path class="e" d="M1.756,23.375a8.612,8.612,0,0,0-.673,2.689,20.125,20.125,0,0,0,.361,3.166H24.067q.882-2.915-1.018-3.148t-3.156-.42L9.378,20.976a.4.4,0,0,0-.53.2l0,.01-.676,1.639a7.213,7.213,0,0,1-2.858.821,6.473,6.473,0,0,1-2.468-.722h0a.8.8,0,0,0-1.063.395Q1.766,23.349,1.756,23.375Z" transform="translate(-1.083 -20.941)"/></g><path class="g" d="M34.651,82.877l10.694,2C53.613,72.766,88.216,23.114,92.01,0H68.2C55.534,16.709,42.532,70.568,34.651,82.877Z" transform="translate(-31.848 11.145)"/></g><g transform="translate(35.622 0) rotate(14)"><g transform="translate(15.241 3.18)"><path class="c" d="M3.314,13.711A10.714,10.714,0,0,1,.424,5.973C1.026-2.534,12.975-.663,15.3,3.631s2.048,15.186-.956,15.953c-1.2.306-3.75-.444-6.347-2L9.626,29.02H0Z" transform="translate(0 0)"/></g><path class="h" d="M31.449,8.739a10.836,10.836,0,0,0-.516-1.7A7.938,7.938,0,0,0,29.919,5.17,14.164,14.164,0,0,0,27.241,2.29,8.805,8.805,0,0,0,20.759.224a6.686,6.686,0,0,0-3.251,1.311c-.868.661-1.7,1.634-2.826,1.7-1.222.076-2.343-.993-3.323-1.654A8.973,8.973,0,0,0,7.786.087,5.969,5.969,0,0,0,2.1,2.218C.51,4.091-.644,6.838.4,9.319a3.183,3.183,0,0,0,.8,1.172c.328.3.829.61.962,1.082.141.5-.281,1.15-.444,1.6a4.68,4.68,0,0,0-.359,2.036,5.234,5.234,0,0,0,1.622,3.026,5.41,5.41,0,0,0,2.8,1.424,7.92,7.92,0,0,0,2.1.161,6.6,6.6,0,0,0,1-.2.907.907,0,0,1,.793.191,6.549,6.549,0,0,0,4.192,1.03,6.778,6.778,0,0,0,3.755-1.267c1.146-.954,1.123-2.269.853-3.675.286.14,1.076.227.6-.332a2.563,2.563,0,0,0-.781-.442,2.837,2.837,0,0,1-.78-.6c-.876-1,.009-3.033,1.11-3.368,1.637-.5,2,1.8,3.171,2.39.672.341,1.374-.125,1.878-.6a7.445,7.445,0,0,0,1.53-2.343c.327-.708.631-1.426.964-2.131.156-.329.694-1.259.424-1.631a5.077,5.077,0,0,1,3.487.884,2.373,2.373,0,0,1,.958,1.012c.048.1.151.393.282.405.243.022.152-.271.128-.411" transform="translate(0 0)"/></g><g transform="translate(12.872 26.409) rotate(1)"><path class="c" d="M62.817,0,75.611,9.349a34.536,34.536,0,0,1,8.7,3.478c.55.5,1.215,1.509-1.066,1.334s-4.688-.256-5,.518,1.065,1.7.429,2.744q-.636,1.044-6.011-5.238L59.989,6.957ZM13.7.323l8.382.033Q14.314,25.292,13.7,26.818c-.928,2.289,1.036,5.774,1.876,7.648-2.735,1.218-2.444-3.293-5.895-1.7-3.15,1.458-5.545,4.1-9.184,1.866-.447-.275-.938-1.309.247-2.117,2.951-2.014,7.2-5.538,7.778-6.7Q9.692,23.448,13.7.323Z" transform="translate(0 38.205)"/><path class="i" d="M0,.892,3.4,0C17.187,9.9,24.3,30.607,41,40.446l-3.374,5C10.071,44.468,1.056,19.238,0,.892Z" transform="translate(37.592 2.642) rotate(5)"/><path class="j" d="M0,45.5H30.688c1.4,0,1.138-2.015.935-3.032C29.283,30.733,20.151,18.084,20.151,1.381L11.3,0C3.978,11.717,1.446,26.144,0,45.5Z" transform="translate(22.395 1.402)"/><path class="k" d="M14.338,12.92a5.056,5.056,0,0,1-3.054-2.573C8.049,4.538,9.217,1.339,12.674.288S19.215,1.4,24.724,1.4a5.57,5.57,0,0,1,.823.056l2.771.157Q40.244,41.834,34.9,55.282H10.743a81.811,81.811,0,0,1-4.108,8.381H.053Q-.876,33.77,14.338,12.92Z" transform="translate(8.304 0)"/><path class="l" d="M5.26,0Q6.4,9.487,8.964,13.77H0Q2.5,7.96,5.26,0Z" transform="translate(19.047 41.512)"/></g></g></g></g><g class="m" transform="translate(0)"><circle class="n" cx="41.5" cy="41.5" r="41.5"/><circle class="o" cx="41.5" cy="41.5" r="38.5"/></g></svg>