<svg xmlns="http://www.w3.org/2000/svg" xmlns:xlink="http://www.w3.org/1999/xlink" width="79.5" height="79.5" viewBox="0 0 79.5 79.5"><defs><style>.a{fill:#fff;stroke:#707070;}.b{clip-path:url(#a);}.c{fill:#b28b67;}.c,.d,.e,.f,.g,.h,.i,.j,.k,.l{fill-rule:evenodd;}.d{fill:#2f3676;}.e{fill:#e4e4e4;}.f{fill:#997659;}.g{fill:#5c63ab;}.h{fill:#191847;}.i{fill:#27901e;}.j{fill:#c8f8c4;}.k{fill:#37c92b;}.l{fill:rgba(0,0,0,0.1);}.m,.o{fill:none;}.m{stroke:#37c92b;stroke-width:6px;}.n{stroke:none;}</style><clipPath id="a"><circle class="a" cx="39.75" cy="39.75" r="39.75"/></clipPath></defs><g class="b"><g transform="translate(-9.401 11.204)"><g transform="translate(0 0)"><g transform="translate(0 55.584)"><path class="c" d="M39.749,0c-7.317,5.969-4.434,58.428-4.922,59.087Q34.5,59.527,0,66.516l1,4.062q40.369-1.933,42.717-4.929,3.361-4.29,8.24-48.038Z" transform="matrix(0.574, -0.819, 0.819, 0.574, 12.408, 43.235)"/><path class="d" d="M0,64.931l1.761,6.542c20.067,2.343,33.288-.488,37.936-4.914q4.647-4.426,8.262-47.907L34.9,0c-17.42,13.146-6.944,56.3-7.388,57.291S16.488,59.038,0,64.931Z" transform="matrix(0.574, -0.819, 0.819, 0.574, 14.733, 39.286)"/><g transform="translate(65.641 78.255) rotate(20)"><path class="e" d="M.645,2.332A8.249,8.249,0,0,0,0,4.907,19.277,19.277,0,0,0,.346,7.94H22.014q.845-2.792-.975-3.015t-3.023-.4L7.945.033a.384.384,0,0,0-.507.194l0,.01-.647,1.57a6.909,6.909,0,0,1-2.738.786A6.2,6.2,0,0,1,1.684,1.9h0a.768.768,0,0,0-1.019.378Q.654,2.306.645,2.332Z" transform="translate(0 0)"/></g><path class="f" d="M69.093,0,49.214,47.54,29.676,87.731h4.61L84.719,0Z" transform="translate(-28.755 10.675)"/><g transform="translate(0 94.257)"><path class="e" d="M1.728,23.273a8.249,8.249,0,0,0-.645,2.575,19.276,19.276,0,0,0,.346,3.033H23.1q.845-2.792-.975-3.015t-3.023-.4L9.028,20.974a.384.384,0,0,0-.507.194l0,.01-.647,1.57a6.909,6.909,0,0,1-2.738.786,6.2,6.2,0,0,1-2.364-.691h0a.768.768,0,0,0-1.019.378Q1.738,23.247,1.728,23.273Z" transform="translate(-1.083 -20.941)"/></g><path class="g" d="M34.651,79.382,44.894,81.3c7.92-11.6,41.064-59.156,44.7-81.3h-22.8C54.653,16,42.2,67.592,34.651,79.382Z" transform="translate(-31.966 10.675)"/></g><g transform="translate(34.119 0) rotate(14)"><g transform="translate(14.599 3.046)"><path class="c" d="M3.174,13.133A10.262,10.262,0,0,1,.406,5.721C.983-2.427,12.427-.635,14.654,3.478s1.962,14.545-.915,15.28c-1.147.293-3.592-.425-6.08-1.911L9.22,27.8H0Z" transform="translate(0)"/></g><path class="h" d="M30.123,8.371a10.379,10.379,0,0,0-.495-1.629,7.6,7.6,0,0,0-.97-1.789,13.567,13.567,0,0,0-2.566-2.759A8.434,8.434,0,0,0,19.884.215,6.4,6.4,0,0,0,16.77,1.471c-.831.633-1.63,1.565-2.706,1.632-1.171.073-2.244-.952-3.183-1.584A8.594,8.594,0,0,0,7.458.083,5.717,5.717,0,0,0,2.009,2.125C.489,3.919-.616,6.549.382,8.926a3.049,3.049,0,0,0,.767,1.123c.314.283.794.584.922,1.037.135.481-.269,1.1-.426,1.535a4.482,4.482,0,0,0-.343,1.95,5.013,5.013,0,0,0,1.554,2.9,5.182,5.182,0,0,0,2.68,1.364,7.586,7.586,0,0,0,2.016.154,6.324,6.324,0,0,0,.955-.19.869.869,0,0,1,.759.183,6.273,6.273,0,0,0,4.015.986,6.492,6.492,0,0,0,3.6-1.214c1.1-.914,1.076-2.174.817-3.52.274.134,1.031.218.578-.318a2.455,2.455,0,0,0-.748-.423,2.718,2.718,0,0,1-.747-.57c-.839-.957.008-2.9,1.064-3.226,1.568-.477,1.919,1.72,3.038,2.289.643.327,1.316-.12,1.8-.576a7.131,7.131,0,0,0,1.466-2.244c.313-.678.6-1.366.923-2.041.149-.315.665-1.206.406-1.563a4.863,4.863,0,0,1,3.34.847,2.272,2.272,0,0,1,.918.97c.046.095.145.377.27.388.232.022.146-.26.123-.394" transform="translate(0 0)"/></g><g transform="translate(12.329 25.295) rotate(1)"><path class="c" d="M60.168,0,72.423,8.954a33.08,33.08,0,0,1,8.33,3.331c.527.478,1.163,1.445-1.021,1.278s-4.49-.245-4.791.5,1.021,1.628.411,2.629q-.609,1-5.757-5.017L57.459,6.664ZM13.118.309,21.146.34Q13.71,24.226,13.118,25.687c-.889,2.192.992,5.531,1.8,7.325-2.62,1.167-2.341-3.154-5.646-1.624-3.017,1.4-5.312,3.927-8.8,1.787-.429-.263-.9-1.254.236-2.028,2.827-1.929,6.9-5.3,7.45-6.415Q9.284,22.46,13.118.309Z" transform="translate(0 36.594)"/><path class="i" d="M0,.854,3.26,0c13.2,9.48,20.019,29.316,36.01,38.741l-3.232,4.785C9.646,42.593,1.011,18.427,0,.854Z" transform="translate(36.007 2.53) rotate(5)"/><path class="j" d="M0,43.58H29.394c1.343,0,1.09-1.93.9-2.9C28.049,29.437,19.3,17.322,19.3,1.323L10.823,0C3.81,11.223,1.385,25.041,0,43.58Z" transform="translate(21.451 1.343)"/><path class="k" d="M13.733,12.375A4.843,4.843,0,0,1,10.808,9.91C7.709,4.346,8.828,1.283,12.14.276s6.265,1.067,11.542,1.067a5.335,5.335,0,0,1,.789.054l2.654.151q11.423,38.523,6.3,51.4H10.29a78.361,78.361,0,0,1-3.935,8.028H.051Q-.839,32.346,13.733,12.375Z" transform="translate(7.954 0)"/><path class="l" d="M5.038,0Q6.129,9.087,8.586,13.19H0Q2.4,7.625,5.038,0Z" transform="translate(18.244 39.761)"/></g></g></g></g><g class="m"><circle class="n" cx="39.75" cy="39.75" r="39.75"/><circle class="o" cx="39.75" cy="39.75" r="36.75"/></g></svg>